<svg width="28" height="27" viewBox="0 0 28 27" fill="none" xmlns="http://www.w3.org/2000/svg">
<path d="M22.1667 12.375H8.33008L12.5651 7.47C12.7631 7.24026 12.8584 6.94407 12.8299 6.64659C12.8015 6.34911 12.6517 6.07471 12.4134 5.88375C12.1752 5.6928 11.868 5.60093 11.5595 5.62835C11.251 5.65578 10.9664 5.80026 10.7684 6.03L4.93508 12.78C4.89584 12.8337 4.86074 12.8901 4.83008 12.9488C4.83008 13.005 4.83008 13.0388 4.74841 13.095C4.69553 13.224 4.66785 13.3613 4.66675 13.5C4.66785 13.6387 4.69553 13.776 4.74841 13.905C4.74841 13.9613 4.74841 13.995 4.83008 14.0513C4.86074 14.1099 4.89584 14.1663 4.93508 14.22L10.7684 20.97C10.8781 21.097 11.0155 21.1991 11.1707 21.2691C11.326 21.3391 11.4954 21.3753 11.6667 21.375C11.9393 21.3755 12.2035 21.284 12.4134 21.1163C12.5315 21.0218 12.6292 20.9058 12.7008 20.7749C12.7724 20.644 12.8165 20.5008 12.8305 20.3535C12.8446 20.2061 12.8284 20.0575 12.7829 19.9162C12.7373 19.7749 12.6633 19.6437 12.5651 19.53L8.33008 14.625H22.1667C22.4762 14.625 22.7729 14.5065 22.9917 14.2955C23.2105 14.0845 23.3334 13.7984 23.3334 13.5C23.3334 13.2016 23.2105 12.9155 22.9917 12.7045C22.7729 12.4935 22.4762 12.375 22.1667 12.375Z" fill="white"/>
</svg>
