<svg width="28" height="27" viewBox="0 0 28 27" fill="none" xmlns="http://www.w3.org/2000/svg">
<path d="M22.1667 12.375H8.33002L12.565 7.47C12.763 7.24026 12.8583 6.94407 12.8299 6.64659C12.8014 6.34911 12.6516 6.07471 12.4134 5.88375C12.1751 5.6928 11.8679 5.60093 11.5594 5.62835C11.2509 5.65578 10.9664 5.80026 10.7684 6.03L4.93502 12.78C4.89577 12.8337 4.86068 12.8901 4.83002 12.9488C4.83002 13.005 4.83002 13.0388 4.74835 13.095C4.69547 13.224 4.66778 13.3613 4.66669 13.5C4.66778 13.6387 4.69547 13.776 4.74835 13.905C4.74835 13.9613 4.74835 13.995 4.83002 14.0513C4.86068 14.1099 4.89577 14.1663 4.93502 14.22L10.7684 20.97C10.878 21.097 11.0154 21.1991 11.1707 21.2691C11.3259 21.3391 11.4953 21.3753 11.6667 21.375C11.9393 21.3755 12.2035 21.284 12.4134 21.1163C12.5315 21.0218 12.6291 20.9058 12.7007 20.7749C12.7723 20.644 12.8164 20.5008 12.8305 20.3535C12.8446 20.2061 12.8284 20.0575 12.7828 19.9162C12.7373 19.7749 12.6633 19.6437 12.565 19.53L8.33002 14.625H22.1667C22.4761 14.625 22.7729 14.5065 22.9916 14.2955C23.2104 14.0845 23.3334 13.7984 23.3334 13.5C23.3334 13.2016 23.2104 12.9155 22.9916 12.7045C22.7729 12.4935 22.4761 12.375 22.1667 12.375Z" fill="white"/>
</svg>
