<svg width="28" height="27" viewBox="0 0 28 27" fill="none" xmlns="http://www.w3.org/2000/svg">
<path d="M22.1667 12.3749H8.32999L12.565 7.46994C12.763 7.2402 12.8583 6.94401 12.8298 6.64653C12.8014 6.34905 12.6516 6.07465 12.4133 5.88369C12.1751 5.69274 11.8679 5.60087 11.5594 5.6283C11.2509 5.65572 10.9664 5.8002 10.7683 6.02994L4.93499 12.7799C4.89574 12.8336 4.86065 12.89 4.82999 12.9487C4.82999 13.0049 4.82999 13.0387 4.74832 13.0949C4.69544 13.2239 4.66775 13.3612 4.66666 13.4999C4.66775 13.6386 4.69544 13.776 4.74832 13.9049C4.74832 13.9612 4.74832 13.9949 4.82999 14.0512C4.86065 14.1099 4.89574 14.1663 4.93499 14.2199L10.7683 20.9699C10.878 21.0969 11.0154 21.1991 11.1706 21.2691C11.3259 21.3391 11.4953 21.3752 11.6667 21.3749C11.9393 21.3755 12.2034 21.2839 12.4133 21.1162C12.5315 21.0218 12.6291 20.9058 12.7007 20.7749C12.7723 20.644 12.8164 20.5008 12.8304 20.3534C12.8445 20.2061 12.8283 20.0575 12.7828 19.9162C12.7372 19.7749 12.6632 19.6436 12.565 19.5299L8.32999 14.6249H22.1667C22.4761 14.6249 22.7728 14.5064 22.9916 14.2954C23.2104 14.0845 23.3333 13.7983 23.3333 13.4999C23.3333 13.2016 23.2104 12.9154 22.9916 12.7044C22.7728 12.4935 22.4761 12.3749 22.1667 12.3749Z" fill="white"/>
</svg>
