<svg width="360" height="108" viewBox="0 0 360 108" fill="none" xmlns="http://www.w3.org/2000/svg">
<rect width="360" height="108" fill="white"/>
<path d="M85.726 56.864C85.726 57.6267 85.5427 58.338 85.176 58.998C84.8093 59.6433 84.252 60.164 83.504 60.56C82.756 60.956 81.8393 61.154 80.754 61.154C79.698 61.154 78.752 60.9707 77.916 60.604C77.08 60.2227 76.4127 59.6947 75.914 59.02C75.4153 58.3453 75.1293 57.568 75.056 56.688H77.74C77.8133 57.3627 78.0993 57.942 78.598 58.426C79.1113 58.91 79.7933 59.152 80.644 59.152C81.4067 59.152 81.9933 58.9467 82.404 58.536C82.8293 58.1253 83.042 57.5973 83.042 56.952C83.042 56.3947 82.888 55.94 82.58 55.588C82.272 55.2213 81.8907 54.9353 81.436 54.73C80.9813 54.5247 80.358 54.29 79.566 54.026C78.598 53.718 77.806 53.41 77.19 53.102C76.5887 52.794 76.0753 52.3467 75.65 51.76C75.2247 51.1733 75.012 50.4033 75.012 49.45C75.012 48.614 75.2173 47.8807 75.628 47.25C76.0387 46.6193 76.6253 46.1353 77.388 45.798C78.1507 45.446 79.0307 45.27 80.028 45.27C81.612 45.27 82.866 45.6513 83.79 46.414C84.7287 47.1767 85.264 48.174 85.396 49.406H82.69C82.5873 48.8193 82.3087 48.3207 81.854 47.91C81.414 47.4847 80.8053 47.272 80.028 47.272C79.324 47.272 78.7593 47.4553 78.334 47.822C77.9087 48.174 77.696 48.6873 77.696 49.362C77.696 49.89 77.8427 50.33 78.136 50.682C78.4293 51.0193 78.796 51.2907 79.236 51.496C79.6907 51.6867 80.3067 51.914 81.084 52.178C82.0667 52.486 82.866 52.8013 83.482 53.124C84.1127 53.432 84.6407 53.8867 85.066 54.488C85.506 55.0893 85.726 55.8813 85.726 56.864ZM87.8848 45.358C87.8848 44.9327 88.0314 44.5807 88.3248 44.302C88.6181 44.0233 89.0068 43.884 89.4908 43.884C89.9748 43.884 90.3634 44.0233 90.6568 44.302C90.9648 44.5807 91.1188 44.9327 91.1188 45.358C91.1188 45.7833 90.9648 46.128 90.6568 46.392C90.3634 46.656 89.9748 46.788 89.4908 46.788C89.0068 46.788 88.6181 46.656 88.3248 46.392C88.0314 46.128 87.8848 45.7833 87.8848 45.358ZM90.7448 48.878V61H88.2368V48.878H90.7448ZM98.6417 48.724C99.7417 48.724 100.68 48.9953 101.458 49.538C102.235 50.0807 102.785 50.7993 103.108 51.694V48.878H105.616V61.132C105.616 62.2613 105.381 63.2587 104.912 64.124C104.457 65.004 103.797 65.6933 102.932 66.192C102.066 66.6907 101.04 66.94 99.8517 66.94C98.1504 66.94 96.7717 66.5367 95.7157 65.73C94.6744 64.9233 94.0217 63.8307 93.7577 62.452H96.2437C96.4491 63.1707 96.8451 63.728 97.4317 64.124C98.0184 64.5347 98.7664 64.74 99.6757 64.74C100.673 64.74 101.494 64.432 102.14 63.816C102.785 63.2 103.108 62.3053 103.108 61.132V58.184C102.785 59.0787 102.235 59.7973 101.458 60.34C100.68 60.8827 99.7417 61.154 98.6417 61.154C97.5857 61.154 96.6397 60.9047 95.8037 60.406C94.9824 59.9073 94.3371 59.1887 93.8677 58.25C93.3984 57.3113 93.1637 56.204 93.1637 54.928C93.1637 53.6667 93.3984 52.5667 93.8677 51.628C94.3371 50.6893 94.9824 49.9707 95.8037 49.472C96.6397 48.9733 97.5857 48.724 98.6417 48.724ZM99.4117 50.924C98.2971 50.924 97.4024 51.2833 96.7277 52.002C96.0677 52.706 95.7377 53.6813 95.7377 54.928C95.7377 56.1747 96.0677 57.1573 96.7277 57.876C97.4024 58.58 98.2971 58.932 99.4117 58.932C100.116 58.932 100.746 58.7707 101.304 58.448C101.861 58.1107 102.301 57.6413 102.624 57.04C102.946 56.4387 103.108 55.7347 103.108 54.928C103.108 54.136 102.946 53.4393 102.624 52.838C102.301 52.222 101.861 51.7527 101.304 51.43C100.746 51.0927 100.116 50.924 99.4117 50.924ZM115.401 48.68C116.809 48.68 117.939 49.1347 118.789 50.044C119.64 50.9533 120.065 52.2513 120.065 53.938V61H117.557V54.202C117.557 53.1167 117.279 52.2807 116.721 51.694C116.164 51.0927 115.401 50.792 114.433 50.792C113.436 50.792 112.637 51.1147 112.035 51.76C111.434 52.3907 111.133 53.322 111.133 54.554V61H108.625V48.878H111.133V51.54C111.456 50.6307 111.999 49.9267 112.761 49.428C113.524 48.9293 114.404 48.68 115.401 48.68ZM130.553 45.468V54.686C130.553 56.0647 130.853 57.0913 131.455 57.766C132.071 58.4407 132.929 58.778 134.029 58.778C135.114 58.778 135.957 58.4407 136.559 57.766C137.175 57.0913 137.483 56.0647 137.483 54.686V45.468H139.991V54.686C139.991 56.8127 139.441 58.426 138.341 59.526C137.241 60.6113 135.789 61.154 133.985 61.154C132.195 61.154 130.758 60.6113 129.673 59.526C128.587 58.426 128.045 56.8127 128.045 54.686V45.468H130.553ZM149.866 48.724C150.922 48.724 151.861 48.9733 152.682 49.472C153.518 49.9707 154.171 50.6893 154.64 51.628C155.11 52.5667 155.344 53.6667 155.344 54.928C155.344 56.204 155.11 57.3113 154.64 58.25C154.171 59.1887 153.518 59.9073 152.682 60.406C151.861 60.9047 150.922 61.154 149.866 61.154C148.766 61.154 147.828 60.8827 147.05 60.34C146.273 59.7973 145.73 59.0787 145.422 58.184V66.764H142.914V48.878H145.422V51.694C145.73 50.7993 146.273 50.0807 147.05 49.538C147.828 48.9953 148.766 48.724 149.866 48.724ZM149.096 50.924C148.392 50.924 147.762 51.0927 147.204 51.43C146.647 51.7527 146.207 52.222 145.884 52.838C145.562 53.4393 145.4 54.136 145.4 54.928C145.4 55.7347 145.562 56.4387 145.884 57.04C146.207 57.6413 146.647 58.1107 147.204 58.448C147.762 58.7707 148.392 58.932 149.096 58.932C150.211 58.932 151.106 58.58 151.78 57.876C152.455 57.1573 152.792 56.1747 152.792 54.928C152.792 53.696 152.455 52.7207 151.78 52.002C151.106 51.2833 150.211 50.924 149.096 50.924Z" fill="#020202"/>
<path d="M41.835 45.87L40.055 44.1L30.165 54L40.065 63.9L41.835 62.13L33.705 54L41.835 45.87Z" fill="#020202"/>
</svg>
